<?xml version="1.0" encoding="UTF-8"?>
<svg id="Layer_1" data-name="Layer 1" xmlns="http://www.w3.org/2000/svg" xmlns:xlink="http://www.w3.org/1999/xlink" viewBox="0 0 1920 1080">
  <defs>
    <linearGradient id="White_Black" data-name="White, Black" x1="4053.45" y1="-3174.22" x2="3419.03" y2="-3945.54" gradientTransform="translate(-2659.81 4454.32)" gradientUnits="userSpaceOnUse">
      <stop offset="0" stop-color="#fff"/>
      <stop offset="1" stop-color="#231f20"/>
    </linearGradient>
    <mask id="mask" x="-406.39" y="-68.13" width="2352.3" height="1179.43" maskUnits="userSpaceOnUse">
      <rect x="-405.3" y="-65.95" width="2350.12" height="1175.06" transform="translate(.97 -1.43) rotate(.11)" style="fill: url(#White_Black);"/>
    </mask>
  </defs>
  <rect x="-19.84" y="-21.14" width="1963.16" height="1120.29" style="fill: #c2156e;"/>
  <g style="mask: url(#mask);">
    <g style="opacity: .5;">
      <polygon points="965.32 181.22 957.23 178.06 958.54 186.65 965.32 181.22" style="fill: #fff; opacity: .83;"/>
      <polygon points="1025.06 133.38 1016.97 130.22 1018.28 138.81 1025.06 133.38" style="fill: #fff; opacity: .65;"/>
      <polygon points="979.56 144.73 978.25 136.14 971.46 141.57 979.56 144.73" style="fill: #fff; opacity: .81;"/>
      <polygon points="953.77 105.56 945.67 102.4 946.98 111 953.77 105.56" style="fill: #fff; opacity: .88;"/>
      <polygon points="1084.8 85.54 1076.7 82.38 1078.02 90.97 1084.8 85.54" style="fill: #fff; opacity: .36;"/>
      <polygon points="1039.3 96.89 1037.98 88.3 1031.2 93.73 1039.3 96.89" style="fill: #fff; opacity: .31;"/>
      <polygon points="1013.5 57.72 1005.41 54.56 1006.72 63.16 1013.5 57.72" style="fill: #fff; opacity: .86;"/>
      <polygon points="966.69 60.48 959.91 65.91 968 69.07 966.69 60.48" style="fill: #fff; opacity: .3;"/>
      <polygon points="942.21 29.91 934.11 26.75 935.42 35.34 942.21 29.91" style="fill: #fff; opacity: .85;"/>
      <polygon points="1144.54 37.69 1136.44 34.53 1137.75 43.13 1144.54 37.69" style="fill: #fff; opacity: .49;"/>
      <polygon points="1099.03 49.04 1097.72 40.45 1090.94 45.89 1099.03 49.04" style="fill: #fff; opacity: .28;"/>
      <polygon points="1073.24 9.88 1065.15 6.72 1066.46 15.31 1073.24 9.88" style="fill: #fff; opacity: .77;"/>
      <polygon points="1026.43 12.64 1019.64 18.07 1027.74 21.23 1026.43 12.64" style="fill: #fff; opacity: .52;"/>
      <polygon points="1158.77 1.2 1157.46 -7.39 1150.68 -1.96 1158.77 1.2" style="fill: #fff; opacity: .91;"/>
      <polygon points="1058.49 983.29 1004.05 1026.89 1069.03 1052.24 1058.49 983.29" style="fill: #fff; opacity: .11;"/>
      <polygon points="998.75 1031.13 944.31 1074.73 1009.29 1100.08 998.75 1031.13" style="fill: #fff; opacity: .25;"/>
      <polygon points="1067.6 1055.89 1002.63 1030.54 1013.16 1099.49 1067.6 1055.89" style="fill: #fff; opacity: .92;"/>
      <polygon points="1070.05 1058.95 1015.61 1102.55 1080.58 1127.9 1070.05 1058.95" style="fill: #fff; opacity: .48;"/>
      <polygon points="939.02 1078.97 884.57 1122.58 949.55 1147.93 939.02 1078.97" style="fill: #fff; opacity: .49;"/>
      <polygon points="1007.86 1103.73 942.89 1078.38 953.42 1147.33 1007.86 1103.73" style="fill: #fff; opacity: .47;"/>
      <polygon points="1965.04 334.74 1954.51 265.79 1900.07 309.39 1965.04 334.74" style="fill: #fff; opacity: .63;"/>
      <polygon points="1905.3 382.58 1894.77 313.63 1840.33 357.23 1905.3 382.58" style="fill: #fff; opacity: .72;"/>
      <polygon points="1909.18 381.99 1963.62 338.39 1898.64 313.04 1909.18 381.99" style="fill: #fff; opacity: .43;"/>
      <polygon points="1911.62 385.04 1976.6 410.39 1966.07 341.44 1911.62 385.04" style="fill: #fff; opacity: .2;"/>
      <polygon points="1845.57 430.42 1835.03 361.47 1780.59 405.07 1845.57 430.42" style="fill: #fff; opacity: .27;"/>
      <polygon points="1849.44 429.83 1903.88 386.23 1838.9 360.88 1849.44 429.83" style="fill: #fff; opacity: .31;"/>
      <polygon points="1916.86 458.24 1906.33 389.28 1851.89 432.89 1916.86 458.24" style="fill: #fff; opacity: .38;"/>
      <polygon points="1910.2 388.69 1920.73 457.64 1975.18 414.04 1910.2 388.69" style="fill: #fff; opacity: .12;"/>
      <polygon points="1720.85 452.91 1785.83 478.26 1775.29 409.31 1720.85 452.91" style="fill: #fff; opacity: .42;"/>
      <polygon points="1789.7 477.67 1844.14 434.07 1779.17 408.72 1789.7 477.67" style="fill: #fff; opacity: .54;"/>
      <polygon points="1857.13 506.08 1846.59 437.13 1792.15 480.73 1857.13 506.08" style="fill: #fff; opacity: .49;"/>
      <polygon points="1861 505.49 1915.44 461.88 1850.46 436.54 1861 505.49" style="fill: #fff; opacity: .42;"/>
      <polygon points="1928.42 533.89 1917.89 464.94 1863.44 508.54 1928.42 533.89" style="fill: #fff; opacity: .35;"/>
      <polygon points="1661.11 500.76 1726.09 526.11 1715.56 457.15 1661.11 500.76" style="fill: #fff; opacity: .81;"/>
      <polygon points="1729.96 525.51 1784.41 481.91 1719.43 456.56 1729.96 525.51" style="fill: #fff; opacity: .31;"/>
      <polygon points="1732.41 528.57 1797.39 553.92 1786.85 484.97 1732.41 528.57" style="fill: #fff; opacity: .65;"/>
      <polygon points="1801.26 553.33 1855.7 509.73 1790.73 484.38 1801.26 553.33" style="fill: #fff; opacity: .52;"/>
      <polygon points="1868.68 581.73 1858.15 512.78 1803.71 556.38 1868.68 581.73" style="fill: #fff; opacity: .64;"/>
      <polygon points="1862.02 512.19 1872.56 581.14 1927 537.54 1862.02 512.19" style="fill: #fff; opacity: .72;"/>
      <polygon points="1875 584.2 1939.98 609.55 1929.45 540.6 1875 584.2" style="fill: #fff; opacity: .43;"/>
      <polygon points="1770.93 832.32 1705.95 806.97 1716.48 875.92 1770.93 832.32" style="fill: #fff; opacity: .97;"/>
      <polygon points="1702.08 807.56 1647.64 851.16 1712.61 876.51 1702.08 807.56" style="fill: #fff; opacity: .47;"/>
      <polygon points="1699.63 804.5 1634.65 779.15 1645.19 848.1 1699.63 804.5" style="fill: #fff; opacity: .19;"/>
      <polygon points="1630.78 779.75 1576.34 823.35 1641.32 848.7 1630.78 779.75" style="fill: #fff; opacity: .39;"/>
      <polygon points="1628.33 776.69 1563.36 751.34 1573.89 820.29 1628.33 776.69" style="fill: #fff; opacity: .78;"/>
      <polygon points="1559.49 751.93 1505.04 795.53 1570.02 820.88 1559.49 751.93" style="fill: #fff; opacity: .94;"/>
      <polygon points="1557.04 748.87 1492.06 723.53 1502.59 792.47 1557.04 748.87" style="fill: #fff; opacity: .24;"/>
      <polygon points="1488.19 724.12 1433.75 767.72 1498.72 793.07 1488.19 724.12" style="fill: #fff; opacity: .67;"/>
      <polygon points="1420.76 695.71 1431.3 764.66 1485.74 721.06 1420.76 695.71" style="fill: #fff; opacity: .31;"/>
      <polygon points="1427.43 765.25 1416.89 696.3 1362.45 739.9 1427.43 765.25" style="fill: #fff; opacity: .59;"/>
      <polygon points="1830.66 784.47 1765.69 759.13 1776.22 828.08 1830.66 784.47" style="fill: #fff; opacity: .41;"/>
      <polygon points="1761.82 759.72 1707.37 803.32 1772.35 828.67 1761.82 759.72" style="fill: #fff; opacity: .67;"/>
      <polygon points="1759.37 756.66 1694.39 731.31 1704.93 800.26 1759.37 756.66" style="fill: #fff; opacity: .97;"/>
      <polygon points="1690.52 731.9 1636.08 775.51 1701.05 800.85 1690.52 731.9" style="fill: #fff; opacity: .87;"/>
      <polygon points="1688.07 728.85 1623.09 703.5 1633.63 772.45 1688.07 728.85" style="fill: #fff; opacity: .87;"/>
      <polygon points="1619.22 704.09 1564.78 747.69 1629.76 773.04 1619.22 704.09" style="fill: #fff; opacity: .98;"/>
      <polygon points="1616.78 701.03 1551.8 675.68 1562.33 744.63 1616.78 701.03" style="fill: #fff; opacity: .17;"/>
      <polygon points="1547.93 676.27 1493.48 719.88 1558.46 745.23 1547.93 676.27" style="fill: #fff; opacity: .76;"/>
      <polygon points="1480.5 647.87 1491.04 716.82 1545.48 673.22 1480.5 647.87" style="fill: #fff; opacity: .39;"/>
      <polygon points="1487.16 717.41 1476.63 648.46 1422.19 692.06 1487.16 717.41" style="fill: #fff; opacity: .94;"/>
      <polygon points="1890.4 736.63 1825.42 711.28 1835.96 780.23 1890.4 736.63" style="fill: #fff; opacity: .38;"/>
      <polygon points="1821.55 711.88 1767.11 755.48 1832.09 780.82 1821.55 711.88" style="fill: #fff; opacity: .3;"/>
      <polygon points="1819.1 708.82 1754.13 683.47 1764.66 752.42 1819.1 708.82" style="fill: #fff; opacity: .99;"/>
      <polygon points="1750.26 684.06 1695.82 727.66 1760.79 753.01 1750.26 684.06" style="fill: #fff; opacity: .45;"/>
      <polygon points="1747.81 681 1682.83 655.66 1693.37 724.6 1747.81 681" style="fill: #fff; opacity: .68;"/>
      <polygon points="1678.96 656.25 1624.52 699.85 1689.5 725.2 1678.96 656.25" style="fill: #fff; opacity: .47;"/>
      <polygon points="1676.51 653.19 1611.54 627.84 1622.07 696.79 1676.51 653.19" style="fill: #fff; opacity: .35;"/>
      <polygon points="1607.66 628.43 1553.22 672.03 1618.2 697.38 1607.66 628.43" style="fill: #fff; opacity: .26;"/>
      <polygon points="1540.24 600.03 1550.77 668.98 1605.22 625.38 1540.24 600.03" style="fill: #fff; opacity: .59;"/>
      <polygon points="1546.9 669.57 1536.37 600.62 1481.93 644.22 1546.9 669.57" style="fill: #fff; opacity: .55;"/>
      <polygon points="1950.14 688.79 1885.16 663.44 1895.7 732.39 1950.14 688.79" style="fill: #fff; opacity: .81;"/>
      <polygon points="1881.29 664.03 1826.85 707.63 1891.83 732.98 1881.29 664.03" style="fill: #fff; opacity: .81;"/>
      <polygon points="1878.84 660.98 1813.87 635.63 1824.4 704.58 1878.84 660.98" style="fill: #fff; opacity: .49;"/>
      <polygon points="1809.99 636.22 1755.55 679.82 1820.53 705.17 1809.99 636.22" style="fill: #fff; opacity: .38;"/>
      <polygon points="1807.55 633.16 1742.57 607.81 1753.1 676.76 1807.55 633.16" style="fill: #fff; opacity: .61;"/>
      <polygon points="1738.7 608.4 1684.26 652.01 1749.23 677.36 1738.7 608.4" style="fill: #fff; opacity: .17;"/>
      <polygon points="1736.25 605.35 1671.27 580 1681.81 648.95 1736.25 605.35" style="fill: #fff; opacity: .81;"/>
      <polygon points="1667.4 580.59 1612.96 624.19 1677.94 649.54 1667.4 580.59" style="fill: #fff; opacity: .57;"/>
      <polygon points="1599.98 552.18 1610.51 621.14 1664.95 577.53 1599.98 552.18" style="fill: #fff; opacity: .71;"/>
      <polygon points="1606.64 621.73 1596.11 552.78 1541.66 596.38 1606.64 621.73" style="fill: #fff; opacity: .55;"/>
      <polygon points="1886.59 659.79 1951.56 685.14 1941.03 616.19 1886.59 659.79" style="fill: #fff; opacity: .17;"/>
      <polygon points="1873.6 587.78 1884.14 656.74 1938.58 613.13 1873.6 587.78" style="fill: #fff; opacity: .7;"/>
      <polygon points="1880.27 657.33 1869.73 588.38 1815.29 631.98 1880.27 657.33" style="fill: #fff; opacity: .71;"/>
      <polygon points="1812.84 628.92 1867.28 585.32 1802.31 559.97 1812.84 628.92" style="fill: #fff; opacity: .27;"/>
      <polygon points="1743.99 604.16 1808.97 629.51 1798.44 560.56 1743.99 604.16" style="fill: #fff; opacity: .3;"/>
      <polygon points="1741.55 601.11 1795.99 557.5 1731.01 532.16 1741.55 601.11" style="fill: #fff; opacity: .23;"/>
      <polygon points="1672.7 576.35 1737.67 601.7 1727.14 532.75 1672.7 576.35" style="fill: #fff; opacity: .21;"/>
      <polygon points="1670.25 573.29 1724.69 529.69 1659.72 504.34 1670.25 573.29" style="fill: #fff; opacity: .66;"/>
      <polygon points="1601.4 548.54 1666.38 573.88 1655.84 504.93 1601.4 548.54" style="fill: #fff; opacity: .39;"/>
      <polygon points="1898.08 735.5 1963.06 760.85 1952.53 691.9 1898.08 735.5" style="fill: #fff; opacity: .4;"/>
      <polygon points="1892.79 739.74 1838.35 783.34 1903.32 808.69 1892.79 739.74" style="fill: #fff; opacity: .65;"/>
      <polygon points="1961.64 764.49 1896.66 739.15 1907.19 808.1 1961.64 764.49" style="fill: #fff; opacity: .78;"/>
      <polygon points="1909.64 811.15 1974.62 836.5 1964.09 767.55 1909.64 811.15" style="fill: #fff; opacity: .43;"/>
      <polygon points="1833.05 787.58 1778.61 831.18 1843.59 856.53 1833.05 787.58" style="fill: #fff; opacity: .38;"/>
      <polygon points="1901.9 812.34 1836.92 786.99 1847.46 855.94 1901.9 812.34" style="fill: #fff; opacity: .59;"/>
      <polygon points="1904.35 815.39 1849.91 858.99 1914.88 884.34 1904.35 815.39" style="fill: #fff; opacity: .8;"/>
      <polygon points="1973.2 840.15 1908.22 814.8 1918.75 883.75 1973.2 840.15" style="fill: #fff; opacity: .28;"/>
      <polygon points="1773.31 835.42 1718.87 879.02 1783.85 904.37 1773.31 835.42" style="fill: #fff; opacity: .95;"/>
      <polygon points="1842.16 860.18 1777.19 834.83 1787.72 903.78 1842.16 860.18" style="fill: #fff; opacity: .57;"/>
      <polygon points="1844.61 863.24 1790.17 906.84 1855.14 932.19 1844.61 863.24" style="fill: #fff; opacity: .35;"/>
      <polygon points="1913.46 887.99 1848.48 862.64 1859.02 931.59 1913.46 887.99" style="fill: #fff; opacity: .61;"/>
      <polygon points="1915.91 891.05 1861.46 934.65 1926.44 960 1915.91 891.05" style="fill: #fff; opacity: .32;"/>
      <polygon points="1984.76 915.81 1919.78 890.46 1930.31 959.41 1984.76 915.81" style="fill: #fff; opacity: .81;"/>
      <polygon points="1876.86 1087.09 1811.89 1061.74 1822.42 1130.69 1876.86 1087.09" style="fill: #fff; opacity: .66;"/>
      <polygon points="1808.01 1062.33 1753.57 1105.93 1818.55 1131.28 1808.01 1062.33" style="fill: #fff; opacity: .73;"/>
      <polygon points="1805.57 1059.27 1740.59 1033.92 1751.12 1102.87 1805.57 1059.27" style="fill: #fff; opacity: .43;"/>
      <polygon points="1939.05 1042.3 1884.61 1085.9 1949.58 1111.25 1939.05 1042.3" style="fill: #fff; opacity: .22;"/>
      <polygon points="1936.6 1039.24 1871.62 1013.89 1882.16 1082.84 1936.6 1039.24" style="fill: #fff; opacity: .24;"/>
      <polygon points="1867.75 1014.49 1813.31 1058.09 1878.29 1083.44 1867.75 1014.49" style="fill: #fff; opacity: .22;"/>
      <polygon points="1865.3 1011.43 1800.33 986.08 1810.86 1055.03 1865.3 1011.43" style="fill: #fff; opacity: .77;"/>
      <polygon points="1796.46 986.67 1742.01 1030.27 1806.99 1055.62 1796.46 986.67" style="fill: #fff; opacity: .8;"/>
      <polygon points="1794.01 983.61 1729.03 958.26 1739.56 1027.22 1794.01 983.61" style="fill: #fff; opacity: .12;"/>
      <polygon points="1927.49 966.64 1873.05 1010.24 1938.02 1035.59 1927.49 966.64" style="fill: #fff; opacity: .87;"/>
      <polygon points="1925.04 963.59 1860.07 938.24 1870.6 1007.19 1925.04 963.59" style="fill: #fff; opacity: .37;"/>
      <polygon points="1856.19 938.83 1801.75 982.43 1866.73 1007.78 1856.19 938.83" style="fill: #fff; opacity: .61;"/>
      <polygon points="1853.75 935.77 1788.77 910.42 1799.3 979.37 1853.75 935.77" style="fill: #fff; opacity: .17;"/>
      <polygon points="1784.9 911.01 1730.45 954.62 1795.43 979.96 1784.9 911.01" style="fill: #fff; opacity: .46;"/>
      <polygon points="1782.45 907.96 1717.47 882.61 1728.01 951.56 1782.45 907.96" style="fill: #fff; opacity: .85;"/>
      <polygon points="1367.69 813.09 1357.16 744.14 1302.71 787.75 1367.69 813.09" style="fill: #fff; opacity: .75;"/>
      <polygon points="1361.03 743.55 1371.56 812.5 1426 768.9 1361.03 743.55" style="fill: #fff; opacity: .48;"/>
      <polygon points="1428.45 771.96 1374.01 815.56 1438.99 840.91 1428.45 771.96" style="fill: #fff; opacity: .82;"/>
      <polygon points="1497.3 796.71 1432.32 771.37 1442.86 840.32 1497.3 796.71" style="fill: #fff; opacity: .48;"/>
      <polygon points="1499.75 799.77 1445.31 843.37 1510.28 868.72 1499.75 799.77" style="fill: #fff; opacity: .49;"/>
      <polygon points="1568.6 824.53 1503.62 799.18 1514.15 868.13 1568.6 824.53" style="fill: #fff; opacity: .42;"/>
      <polygon points="1571.04 827.59 1516.6 871.19 1581.58 896.54 1571.04 827.59" style="fill: #fff; opacity: .63;"/>
      <polygon points="1639.89 852.34 1574.92 826.99 1585.45 895.94 1639.89 852.34" style="fill: #fff; opacity: .87;"/>
      <polygon points="1642.34 855.4 1587.9 899 1652.88 924.35 1642.34 855.4" style="fill: #fff; opacity: .26;"/>
      <polygon points="1711.19 880.16 1646.21 854.81 1656.75 923.76 1711.19 880.16" style="fill: #fff; opacity: .72;"/>
      <polygon points="1713.64 883.21 1659.19 926.82 1724.17 952.17 1713.64 883.21" style="fill: #fff; opacity: .66;"/>
      <polygon points="1307.95 860.94 1297.42 791.99 1242.98 835.59 1307.95 860.94" style="fill: #fff; opacity: .74;"/>
      <polygon points="1311.82 860.34 1366.27 816.74 1301.29 791.39 1311.82 860.34" style="fill: #fff; opacity: .21;"/>
      <polygon points="1368.71 819.8 1314.27 863.4 1379.25 888.75 1368.71 819.8" style="fill: #fff; opacity: .48;"/>
      <polygon points="1437.56 844.56 1372.59 819.21 1383.12 888.16 1437.56 844.56" style="fill: #fff; opacity: .24;"/>
      <polygon points="1440.01 847.61 1385.57 891.22 1450.54 916.56 1440.01 847.61" style="fill: #fff; opacity: .45;"/>
      <polygon points="1508.86 872.37 1443.88 847.02 1454.42 915.97 1508.86 872.37" style="fill: #fff; opacity: .22;"/>
      <polygon points="1511.31 875.43 1456.86 919.03 1521.84 944.38 1511.31 875.43" style="fill: #fff; opacity: .44;"/>
      <polygon points="1580.15 900.19 1515.18 874.84 1525.71 943.79 1580.15 900.19" style="fill: #fff; opacity: .65;"/>
      <polygon points="1582.6 903.24 1528.16 946.84 1593.14 972.19 1582.6 903.24" style="fill: #fff; opacity: .62;"/>
      <polygon points="1651.45 928 1586.47 902.65 1597.01 971.6 1651.45 928" style="fill: #fff; opacity: .24;"/>
      <polygon points="1653.9 931.06 1599.46 974.66 1664.43 1000.01 1653.9 931.06" style="fill: #fff; opacity: .57;"/>
      <polygon points="1722.75 955.81 1657.77 930.47 1668.3 999.41 1722.75 955.81" style="fill: #fff; opacity: .13;"/>
      <polygon points="1725.2 958.87 1670.75 1002.47 1735.73 1027.82 1725.2 958.87" style="fill: #fff; opacity: .75;"/>
      <polygon points="1237.68 839.83 1183.24 883.43 1248.21 908.78 1237.68 839.83" style="fill: #fff; opacity: .11;"/>
      <polygon points="1306.53 864.58 1241.55 839.24 1252.09 908.19 1306.53 864.58" style="fill: #fff; opacity: .32;"/>
      <polygon points="1308.98 867.64 1254.53 911.24 1319.51 936.59 1308.98 867.64" style="fill: #fff; opacity: .19;"/>
      <polygon points="1377.82 892.4 1312.85 867.05 1323.38 936 1377.82 892.4" style="fill: #fff; opacity: .55;"/>
      <polygon points="1380.27 895.46 1325.83 939.06 1390.81 964.41 1380.27 895.46" style="fill: #fff; opacity: .8;"/>
      <polygon points="1449.12 920.21 1384.14 894.86 1394.68 963.82 1449.12 920.21" style="fill: #fff; opacity: .3;"/>
      <polygon points="1451.57 923.27 1397.13 966.87 1462.1 992.22 1451.57 923.27" style="fill: #fff; opacity: .38;"/>
      <polygon points="1520.42 948.03 1455.44 922.68 1465.97 991.63 1520.42 948.03" style="fill: #fff; opacity: .63;"/>
      <polygon points="1522.87 951.08 1468.42 994.69 1533.4 1020.03 1522.87 951.08" style="fill: #fff; opacity: .87;"/>
      <polygon points="1591.71 975.84 1526.74 950.49 1537.27 1019.44 1591.71 975.84" style="fill: #fff; opacity: .9;"/>
      <polygon points="1594.16 978.9 1539.72 1022.5 1604.7 1047.85 1594.16 978.9" style="fill: #fff; opacity: .78;"/>
      <polygon points="1663.01 1003.65 1598.03 978.31 1608.57 1047.26 1663.01 1003.65" style="fill: #fff; opacity: .76;"/>
      <polygon points="1665.46 1006.71 1611.02 1050.31 1675.99 1075.66 1665.46 1006.71" style="fill: #fff; opacity: .48;"/>
      <polygon points="1734.31 1031.47 1669.33 1006.12 1679.86 1075.07 1734.31 1031.47" style="fill: #fff; opacity: .43;"/>
      <polygon points="1736.75 1034.53 1682.31 1078.13 1747.29 1103.48 1736.75 1034.53" style="fill: #fff; opacity: .88;"/>
      <polygon points="1177.94 887.67 1123.5 931.27 1188.48 956.62 1177.94 887.67" style="fill: #fff; opacity: .94;"/>
      <polygon points="1246.79 912.43 1181.81 887.08 1192.35 956.03 1246.79 912.43" style="fill: #fff; opacity: .21;"/>
      <polygon points="1249.24 915.48 1194.8 959.08 1259.77 984.43 1249.24 915.48" style="fill: #fff; opacity: .21;"/>
      <polygon points="1318.09 940.24 1253.11 914.89 1263.64 983.84 1318.09 940.24" style="fill: #fff; opacity: .37;"/>
      <polygon points="1320.53 943.3 1266.09 986.9 1331.07 1012.25 1320.53 943.3" style="fill: #fff; opacity: .71;"/>
      <polygon points="1389.38 968.06 1324.41 942.71 1334.94 1011.66 1389.38 968.06" style="fill: #fff; opacity: .16;"/>
      <polygon points="1391.83 971.11 1337.39 1014.71 1402.37 1040.06 1391.83 971.11" style="fill: #fff; opacity: .72;"/>
      <polygon points="1460.68 995.87 1395.7 970.52 1406.24 1039.47 1460.68 995.87" style="fill: #fff; opacity: .85;"/>
      <polygon points="1463.13 998.93 1408.68 1042.53 1473.66 1067.88 1463.13 998.93" style="fill: #fff; opacity: .6;"/>
      <polygon points="1531.98 1023.68 1467 998.34 1477.53 1067.28 1531.98 1023.68" style="fill: #fff; opacity: .31;"/>
      <polygon points="1534.42 1026.74 1479.98 1070.34 1544.96 1095.69 1534.42 1026.74" style="fill: #fff; opacity: .96;"/>
      <polygon points="1603.27 1051.5 1538.3 1026.15 1548.83 1095.1 1603.27 1051.5" style="fill: #fff; opacity: .22;"/>
      <polygon points="1605.72 1054.56 1551.28 1098.16 1616.25 1123.5 1605.72 1054.56" style="fill: #fff; opacity: .87;"/>
      <polygon points="1674.57 1079.31 1609.59 1053.96 1620.13 1122.91 1674.57 1079.31" style="fill: #fff; opacity: .89;"/>
      <polygon points="1118.2 935.51 1063.76 979.11 1128.74 1004.46 1118.2 935.51" style="fill: #fff; opacity: .66;"/>
      <polygon points="1187.05 960.27 1122.08 934.92 1132.61 1003.87 1187.05 960.27" style="fill: #fff; opacity: .49;"/>
      <polygon points="1189.5 963.33 1135.06 1006.93 1200.03 1032.28 1189.5 963.33" style="fill: #fff; opacity: .75;"/>
      <polygon points="1258.35 988.08 1193.37 962.73 1203.91 1031.68 1258.35 988.08" style="fill: #fff; opacity: .34;"/>
      <polygon points="1260.8 991.14 1206.35 1034.74 1271.33 1060.09 1260.8 991.14" style="fill: #fff; opacity: .91;"/>
      <polygon points="1329.65 1015.9 1264.67 990.55 1275.2 1059.5 1329.65 1015.9" style="fill: #fff; opacity: .12;"/>
      <polygon points="1332.09 1018.95 1277.65 1062.56 1342.63 1087.91 1332.09 1018.95" style="fill: #fff; opacity: .41;"/>
      <polygon points="1400.94 1043.71 1335.97 1018.36 1346.5 1087.31 1400.94 1043.71" style="fill: #fff; opacity: .91;"/>
      <polygon points="1403.39 1046.77 1348.95 1090.37 1413.92 1115.72 1403.39 1046.77" style="fill: #fff; opacity: .9;"/>
      <polygon points="1472.24 1071.53 1407.26 1046.18 1417.79 1115.13 1472.24 1071.53" style="fill: #fff; opacity: .79;"/>
      <polygon points="1474.69 1074.58 1420.24 1118.18 1485.22 1143.53 1474.69 1074.58" style="fill: #fff; opacity: .88;"/>
      <polygon points="1543.53 1099.34 1478.56 1073.99 1489.09 1142.94 1543.53 1099.34" style="fill: #fff; opacity: .83;"/>
      <polygon points="1138.9 1083.7 1073.92 1058.36 1084.45 1127.31 1138.9 1083.7" style="fill: #fff; opacity: .2;"/>
      <polygon points="1341.23 1091.49 1276.25 1066.14 1286.79 1135.09 1341.23 1091.49" style="fill: #fff; opacity: .73;"/>
      <polygon points="1272.38 1066.73 1217.94 1110.33 1282.91 1135.68 1272.38 1066.73" style="fill: #fff; opacity: .91;"/>
      <polygon points="1269.93 1063.68 1204.96 1038.33 1215.49 1107.28 1269.93 1063.68" style="fill: #fff; opacity: .39;"/>
      <polygon points="1201.08 1038.92 1146.64 1082.52 1211.62 1107.87 1201.08 1038.92" style="fill: #fff; opacity: .98;"/>
      <polygon points="1198.64 1035.86 1133.66 1010.51 1144.19 1079.46 1198.64 1035.86" style="fill: #fff; opacity: .96;"/>
      <polygon points="1129.79 1011.1 1075.34 1054.71 1140.32 1080.06 1129.79 1011.1" style="fill: #fff; opacity: .62;"/>
      <polygon points="1127.34 1008.05 1062.36 982.7 1072.9 1051.65 1127.34 1008.05" style="fill: #fff; opacity: .94;"/>
      <polygon points="923.28 265.07 931.38 268.23 930.07 259.63 923.28 265.07" style="fill: #fff; opacity: .6;"/>
      <polygon points="976.88 256.87 968.79 253.72 970.1 262.31 976.88 256.87" style="fill: #fff; opacity: .3;"/>
      <polygon points="870.33 307.48 863.55 312.91 871.64 316.07 870.33 307.48" style="fill: #fff; opacity: .33;"/>
      <polygon points="917.14 304.72 909.05 301.56 910.36 310.15 917.14 304.72" style="fill: #fff; opacity: .51;"/>
      <polygon points="810.59 355.32 803.81 360.75 811.91 363.91 810.59 355.32" style="fill: #fff; opacity: .44;"/>
      <polygon points="857.41 352.56 849.31 349.4 850.62 357.99 857.41 352.56" style="fill: #fff; opacity: .2;"/>
      <polygon points="750.85 403.16 744.07 408.59 752.17 411.75 750.85 403.16" style="fill: #fff; opacity: .42;"/>
      <polygon points="797.67 400.4 789.57 397.24 790.89 405.83 797.67 400.4" style="fill: #fff; opacity: .83;"/>
      <polygon points="691.12 451 684.33 456.44 692.43 459.59 691.12 451" style="fill: #fff; opacity: .79;"/>
      <polygon points="737.93 448.24 729.84 445.08 731.15 453.68 737.93 448.24" style="fill: #fff; opacity: .61;"/>
      <polygon points="678.22 496.02 670.12 492.86 671.44 501.46 678.22 496.02" style="fill: #fff; opacity: .83;"/>
      <polygon points="1036.62 209.03 1028.52 205.88 1029.84 214.47 1036.62 209.03" style="fill: #fff; opacity: .96;"/>
      <polygon points="983.02 217.23 991.12 220.38 989.81 211.79 983.02 217.23" style="fill: #fff; opacity: .9;"/>
      <polygon points="1096.36 161.19 1088.26 158.03 1089.57 166.62 1096.36 161.19" style="fill: #fff; opacity: .39;"/>
      <polygon points="1042.76 169.39 1050.86 172.54 1049.54 163.95 1042.76 169.39" style="fill: #fff; opacity: .24;"/>
      <polygon points="1156.09 113.35 1148 110.19 1149.31 118.78 1156.09 113.35" style="fill: #fff; opacity: .7;"/>
      <polygon points="1102.5 121.54 1110.59 124.7 1109.28 116.11 1102.5 121.54" style="fill: #fff; opacity: .96;"/>
      <polygon points="1215.83 65.51 1207.74 62.35 1209.05 70.94 1215.83 65.51" style="fill: #fff; opacity: .27;"/>
      <polygon points="1162.23 73.7 1170.33 76.86 1169.02 68.27 1162.23 73.7" style="fill: #fff; opacity: .2;"/>
      <polygon points="1275.57 17.66 1267.47 14.5 1268.79 23.1 1275.57 17.66" style="fill: #fff; opacity: .61;"/>
      <polygon points="1230.07 29.02 1228.76 20.43 1221.97 25.86 1230.07 29.02" style="fill: #fff; opacity: .62;"/>
      <polygon points="1415.87 689.6 1405.33 620.65 1350.89 664.25 1415.87 689.6" style="fill: #fff; opacity: .32;"/>
      <polygon points="1356.13 737.44 1345.6 668.49 1291.15 712.09 1356.13 737.44" style="fill: #fff; opacity: .58;"/>
      <polygon points="1360 736.85 1414.44 693.25 1349.47 667.9 1360 736.85" style="fill: #fff; opacity: .49;"/>
      <polygon points="1296.39 785.28 1285.86 716.33 1231.42 759.93 1296.39 785.28" style="fill: #fff; opacity: .73;"/>
      <polygon points="1300.26 784.69 1354.71 741.09 1289.73 715.74 1300.26 784.69" style="fill: #fff; opacity: .15;"/>
      <polygon points="1236.66 833.12 1226.12 764.17 1171.68 807.77 1236.66 833.12" style="fill: #fff; opacity: .85;"/>
      <polygon points="1240.53 832.53 1294.97 788.93 1229.99 763.58 1240.53 832.53" style="fill: #fff; opacity: .47;"/>
      <polygon points="1176.92 880.96 1166.38 812.01 1111.94 855.62 1176.92 880.96" style="fill: #fff; opacity: .15;"/>
      <polygon points="1180.79 880.37 1235.23 836.77 1170.25 811.42 1180.79 880.37" style="fill: #fff; opacity: .65;"/>
      <polygon points="936.57 1075.92 871.59 1050.57 882.12 1119.52 936.57 1075.92" style="fill: #fff; opacity: .54;"/>
      <polygon points="867.72 1051.16 813.28 1094.76 878.25 1120.11 867.72 1051.16" style="fill: #fff; opacity: .12;"/>
      <polygon points="996.3 1028.08 931.33 1002.73 941.86 1071.68 996.3 1028.08" style="fill: #fff; opacity: .76;"/>
      <polygon points="927.46 1003.32 873.01 1046.92 937.99 1072.27 927.46 1003.32" style="fill: #fff; opacity: .52;"/>
      <polygon points="1056.04 980.24 991.06 954.89 1001.6 1023.84 1056.04 980.24" style="fill: #fff; opacity: .56;"/>
      <polygon points="987.19 955.48 932.75 999.08 997.73 1024.43 987.19 955.48" style="fill: #fff; opacity: .5;"/>
      <polygon points="1115.78 932.39 1050.8 907.04 1061.34 976 1115.78 932.39" style="fill: #fff; opacity: .63;"/>
      <polygon points="1046.93 907.64 992.49 951.24 1057.47 976.59 1046.93 907.64" style="fill: #fff; opacity: .87;"/>
      <polygon points="1175.52 884.55 1110.54 859.2 1121.08 928.15 1175.52 884.55" style="fill: #fff; opacity: .42;"/>
      <polygon points="1106.67 859.79 1052.23 903.4 1117.2 928.74 1106.67 859.79" style="fill: #fff; opacity: .16;"/>
      <polygon points="1535.32 593.98 1524.78 525.03 1470.34 568.63 1535.32 593.98" style="fill: #fff; opacity: .17;"/>
      <polygon points="1475.58 641.82 1465.05 572.87 1410.6 616.47 1475.58 641.82" style="fill: #fff; opacity: .73;"/>
      <polygon points="1479.45 641.23 1533.9 597.62 1468.92 572.28 1479.45 641.23" style="fill: #fff; opacity: .88;"/>
      <polygon points="1419.74 689 1474.18 645.4 1409.21 620.05 1419.74 689" style="fill: #fff; opacity: .19;"/>
      <polygon points="1893.72 306.99 1883.19 238.04 1828.74 281.64 1893.72 306.99" style="fill: #fff; opacity: .59;"/>
      <polygon points="1897.59 306.4 1952.03 262.79 1887.06 237.44 1897.59 306.4" style="fill: #fff; opacity: .83;"/>
      <polygon points="1833.98 354.83 1823.45 285.88 1769.01 329.48 1833.98 354.83" style="fill: #fff; opacity: .92;"/>
      <polygon points="1837.85 354.24 1892.3 310.64 1827.32 285.29 1837.85 354.24" style="fill: #fff; opacity: .16;"/>
      <polygon points="1709.27 377.32 1774.24 402.67 1763.71 333.72 1709.27 377.32" style="fill: #fff; opacity: .15;"/>
      <polygon points="1778.12 402.08 1832.56 358.48 1767.58 333.13 1778.12 402.08" style="fill: #fff; opacity: .81;"/>
      <polygon points="1649.53 425.16 1714.51 450.51 1703.97 381.56 1649.53 425.16" style="fill: #fff; opacity: .18;"/>
      <polygon points="1718.38 449.92 1772.82 406.32 1707.84 380.97 1718.38 449.92" style="fill: #fff; opacity: .12;"/>
      <polygon points="1589.79 473.01 1654.77 498.35 1644.23 429.4 1589.79 473.01" style="fill: #fff; opacity: .7;"/>
      <polygon points="1539.19 593.38 1593.63 549.78 1528.66 524.43 1539.19 593.38" style="fill: #fff; opacity: .23;"/>
      <polygon points="1595.06 546.13 1584.52 477.18 1530.08 520.79 1595.06 546.13" style="fill: #fff; opacity: .27;"/>
      <polygon points="1658.64 497.76 1713.08 454.16 1648.11 428.81 1658.64 497.76" style="fill: #fff; opacity: .53;"/>
      <polygon points="1598.93 545.54 1653.37 501.94 1588.39 476.59 1598.93 545.54" style="fill: #fff; opacity: .29;"/>
      <polygon points="1953.46 259.15 1942.92 190.2 1888.48 233.8 1953.46 259.15" style="fill: #fff; opacity: .83;"/>
      <polygon points="804.51 1089.24 795 1027 745.85 1066.36 804.51 1089.24" style="fill: #fff; opacity: .52;"/>
      <polygon points="812.25 1088.06 861.4 1048.7 802.74 1025.81 812.25 1088.06" style="fill: #fff; opacity: .92;"/>
      <polygon points="744.77 1137.08 735.26 1074.84 686.11 1114.2 744.77 1137.08" style="fill: #fff; opacity: .56;"/>
      <polygon points="801.66 1096.54 743 1073.66 752.51 1135.9 801.66 1096.54" style="fill: #fff; opacity: .27;"/>
      <polygon points="1401.86 610.88 1392.35 548.64 1343.2 588 1401.86 610.88" style="fill: #fff; opacity: .47;"/>
      <polygon points="1342.12 658.72 1332.61 596.48 1283.47 635.84 1342.12 658.72" style="fill: #fff; opacity: .38;"/>
      <polygon points="1349.87 657.54 1399.01 618.18 1340.36 595.3 1349.87 657.54" style="fill: #fff; opacity: .63;"/>
      <polygon points="1282.39 706.57 1272.88 644.32 1223.73 683.68 1282.39 706.57" style="fill: #fff; opacity: .27;"/>
      <polygon points="1290.13 705.38 1339.28 666.02 1280.62 643.14 1290.13 705.38" style="fill: #fff; opacity: .28;"/>
      <polygon points="1222.65 754.41 1213.14 692.17 1163.99 731.53 1222.65 754.41" style="fill: #fff; opacity: .79;"/>
      <polygon points="1230.39 753.23 1279.54 713.87 1220.88 690.98 1230.39 753.23" style="fill: #fff; opacity: .94;"/>
      <polygon points="1162.91 802.25 1153.4 740.01 1104.25 779.37 1162.91 802.25" style="fill: #fff; opacity: .88;"/>
      <polygon points="1170.65 801.07 1219.8 761.71 1161.14 738.83 1170.65 801.07" style="fill: #fff; opacity: .99;"/>
      <polygon points="871.99 1040.22 921.14 1000.86 862.48 977.97 871.99 1040.22" style="fill: #fff; opacity: .56;"/>
      <polygon points="864.25 1041.4 854.74 979.16 805.59 1018.52 864.25 1041.4" style="fill: #fff; opacity: .99;"/>
      <polygon points="931.73 992.37 980.87 953.01 922.22 930.13 931.73 992.37" style="fill: #fff; opacity: .19;"/>
      <polygon points="923.98 993.56 914.47 931.32 865.33 970.67 923.98 993.56" style="fill: #fff; opacity: .86;"/>
      <polygon points="991.46 944.53 1040.61 905.17 981.95 882.29 991.46 944.53" style="fill: #fff; opacity: .51;"/>
      <polygon points="983.72 945.72 974.21 883.47 925.07 922.83 983.72 945.72" style="fill: #fff; opacity: .56;"/>
      <polygon points="1051.2 896.69 1100.35 857.33 1041.69 834.45 1051.2 896.69" style="fill: #fff; opacity: .41;"/>
      <polygon points="1043.46 897.87 1033.95 835.63 984.8 874.99 1043.46 897.87" style="fill: #fff; opacity: .6;"/>
      <polygon points="1110.94 848.85 1160.09 809.49 1101.43 786.6 1110.94 848.85" style="fill: #fff; opacity: .28;"/>
      <polygon points="1103.2 850.03 1093.69 787.79 1044.54 827.15 1103.2 850.03" style="fill: #fff; opacity: .21;"/>
      <polygon points="1521.31 515.26 1511.8 453.02 1462.65 492.38 1521.31 515.26" style="fill: #fff; opacity: .3;"/>
      <polygon points="1461.57 563.1 1452.06 500.86 1402.92 540.22 1461.57 563.1" style="fill: #fff; opacity: .15;"/>
      <polygon points="1469.32 561.92 1518.46 522.56 1459.81 499.68 1469.32 561.92" style="fill: #fff; opacity: .11;"/>
      <polygon points="1409.6 609.7 1458.75 570.34 1400.1 547.46 1409.6 609.7" style="fill: #fff; opacity: .91;"/>
      <polygon points="1879.71 228.27 1870.2 166.03 1821.06 205.39 1879.71 228.27" style="fill: #fff; opacity: .16;"/>
      <polygon points="1887.46 227.09 1936.6 187.73 1877.95 164.85 1887.46 227.09" style="fill: #fff; opacity: .53;"/>
      <polygon points="1819.97 276.11 1810.47 213.87 1761.32 253.23 1819.97 276.11" style="fill: #fff; opacity: .92;"/>
      <polygon points="1827.72 274.93 1876.87 235.57 1818.21 212.69 1827.72 274.93" style="fill: #fff; opacity: .99;"/>
      <polygon points="1760.24 323.96 1750.73 261.71 1701.58 301.07 1760.24 323.96" style="fill: #fff; opacity: .19;"/>
      <polygon points="1767.98 322.77 1817.13 283.41 1758.47 260.53 1767.98 322.77" style="fill: #fff; opacity: .91;"/>
      <polygon points="1700.5 371.8 1690.99 309.56 1641.84 348.92 1700.5 371.8" style="fill: #fff; opacity: .5;"/>
      <polygon points="1708.24 370.62 1757.39 331.26 1698.73 308.37 1708.24 370.62" style="fill: #fff; opacity: .95;"/>
      <polygon points="1640.76 419.64 1631.25 357.4 1582.11 396.76 1640.76 419.64" style="fill: #fff; opacity: .92;"/>
      <polygon points="1529.06 514.08 1578.2 474.72 1519.54 451.84 1529.06 514.08" style="fill: #fff; opacity: .52;"/>
      <polygon points="1581.05 467.42 1571.54 405.18 1522.39 444.54 1581.05 467.42" style="fill: #fff; opacity: .93;"/>
      <polygon points="1648.5 418.46 1697.65 379.1 1639 356.21 1648.5 418.46" style="fill: #fff; opacity: .97;"/>
      <polygon points="1588.79 466.24 1637.94 426.88 1579.28 403.99 1588.79 466.24" style="fill: #fff; opacity: .44;"/>
      <polygon points="1939.45 180.43 1929.94 118.19 1880.79 157.55 1939.45 180.43" style="fill: #fff; opacity: .57;"/>
      <polygon points="738.16 990.11 790.5 1010.53 782.02 954.99 738.16 990.11" style="fill: #fff; opacity: .42;"/>
      <polygon points="802.12 1008.75 845.97 973.63 793.63 953.21 802.12 1008.75" style="fill: #fff; opacity: .86;"/>
      <polygon points="730.76 1058.37 722.28 1002.83 678.43 1037.95 730.76 1058.37" style="fill: #fff; opacity: .89;"/>
      <polygon points="742.38 1056.59 786.23 1021.47 733.89 1001.06 742.38 1056.59" style="fill: #fff; opacity: .54;"/>
      <polygon points="618.69 1085.79 671.03 1106.21 662.54 1050.67 618.69 1085.79" style="fill: #fff; opacity: .7;"/>
      <polygon points="682.64 1104.44 726.49 1069.32 674.16 1048.9 682.64 1104.44" style="fill: #fff; opacity: .23;"/>
      <polygon points="1335.52 511.75 1387.85 532.17 1379.37 476.63 1335.52 511.75" style="fill: #fff; opacity: .11;"/>
      <polygon points="1275.78 559.59 1328.12 580.01 1319.63 524.47 1275.78 559.59" style="fill: #fff; opacity: .17;"/>
      <polygon points="1339.73 578.23 1383.58 543.12 1331.25 522.7 1339.73 578.23" style="fill: #fff; opacity: .12;"/>
      <polygon points="1216.04 607.44 1268.38 627.85 1259.89 572.32 1216.04 607.44" style="fill: #fff; opacity: .58;"/>
      <polygon points="1279.99 626.08 1323.85 590.96 1271.51 570.54 1279.99 626.08" style="fill: #fff; opacity: .93;"/>
      <polygon points="1156.31 655.28 1208.64 675.69 1200.16 620.16 1156.31 655.28" style="fill: #fff; opacity: .85;"/>
      <polygon points="1220.26 673.92 1264.11 638.8 1211.77 618.38 1220.26 673.92" style="fill: #fff; opacity: .72;"/>
      <polygon points="1096.57 703.12 1148.9 723.54 1140.42 668 1096.57 703.12" style="fill: #fff; opacity: .99;"/>
      <polygon points="1160.52 721.76 1204.37 686.64 1152.03 666.23 1160.52 721.76" style="fill: #fff; opacity: .14;"/>
      <polygon points="861.86 960.91 905.71 925.79 853.37 905.37 861.86 960.91" style="fill: #fff; opacity: .87;"/>
      <polygon points="797.9 942.27 850.24 962.68 841.75 907.15 797.9 942.27" style="fill: #fff; opacity: .38;"/>
      <polygon points="921.59 913.07 965.44 877.95 913.11 857.53 921.59 913.07" style="fill: #fff; opacity: .18;"/>
      <polygon points="857.64 894.43 909.98 914.84 901.49 859.31 857.64 894.43" style="fill: #fff; opacity: .5;"/>
      <polygon points="981.33 865.22 1025.18 830.11 972.84 809.69 981.33 865.22" style="fill: #fff; opacity: .21;"/>
      <polygon points="917.38 846.58 969.71 867 961.23 811.46 917.38 846.58" style="fill: #fff; opacity: .18;"/>
      <polygon points="1041.07 817.38 1084.92 782.26 1032.58 761.85 1041.07 817.38" style="fill: #fff; opacity: .13;"/>
      <polygon points="977.12 798.74 1029.45 819.16 1020.97 763.62 977.12 798.74" style="fill: #fff; opacity: .68;"/>
      <polygon points="1100.81 769.54 1144.66 734.42 1092.32 714 1100.81 769.54" style="fill: #fff; opacity: .96;"/>
      <polygon points="1036.85 750.9 1089.19 771.32 1080.7 715.78 1036.85 750.9" style="fill: #fff; opacity: .91;"/>
      <polygon points="1454.97 416.13 1507.31 436.55 1498.82 381.01 1454.97 416.13" style="fill: #fff; opacity: .93;"/>
      <polygon points="1395.23 463.97 1447.57 484.39 1439.08 428.85 1395.23 463.97" style="fill: #fff; opacity: .39;"/>
      <polygon points="1459.18 482.62 1503.03 447.49 1450.7 427.08 1459.18 482.62" style="fill: #fff; opacity: .62;"/>
      <polygon points="1399.47 530.39 1443.32 495.27 1390.99 474.86 1399.47 530.39" style="fill: #fff; opacity: .78;"/>
      <polygon points="1813.37 129.14 1865.71 149.56 1857.22 94.02 1813.37 129.14" style="fill: #fff; opacity: .4;"/>
      <polygon points="1877.32 147.78 1921.17 112.66 1868.84 92.25 1877.32 147.78" style="fill: #fff; opacity: .58;"/>
      <polygon points="1753.63 176.98 1805.97 197.4 1797.48 141.86 1753.63 176.98" style="fill: #fff; opacity: .85;"/>
      <polygon points="1817.58 195.63 1861.44 160.51 1809.1 140.09 1817.58 195.63" style="fill: #fff; opacity: .1;"/>
      <polygon points="1693.89 224.83 1746.23 245.24 1737.75 189.71 1693.89 224.83" style="fill: #fff; opacity: .4;"/>
      <polygon points="1801.7 208.35 1749.36 187.93 1757.85 243.47 1801.7 208.35" style="fill: #fff; opacity: .13;"/>
      <polygon points="1634.16 272.67 1686.49 293.08 1678.01 237.55 1634.16 272.67" style="fill: #fff; opacity: .94;"/>
      <polygon points="1741.96 256.19 1689.62 235.77 1698.11 291.31 1741.96 256.19" style="fill: #fff; opacity: .81;"/>
      <polygon points="1574.42 320.51 1626.76 340.93 1618.27 285.39 1574.42 320.51" style="fill: #fff; opacity: .73;"/>
      <polygon points="1518.92 434.77 1562.77 399.65 1510.43 379.24 1518.92 434.77" style="fill: #fff; opacity: .92;"/>
      <polygon points="1514.71 368.29 1567.04 388.71 1558.56 333.17 1514.71 368.29" style="fill: #fff; opacity: .19;"/>
      <polygon points="1682.22 304.03 1629.88 283.61 1638.37 339.15 1682.22 304.03" style="fill: #fff; opacity: .75;"/>
      <polygon points="1578.66 386.93 1622.51 351.81 1570.17 331.39 1578.66 386.93" style="fill: #fff; opacity: .28;"/>
      <polygon points="1873.11 81.3 1925.44 101.72 1916.96 46.18 1873.11 81.3" style="fill: #fff; opacity: .51;"/>
      <polygon points="730.48 913.86 776.49 931.81 769.03 882.98 730.48 913.86" style="fill: #fff; opacity: .89;"/>
      <polygon points="791.98 929.45 830.54 898.57 784.52 880.62 791.98 929.45" style="fill: #fff; opacity: .33;"/>
      <polygon points="716.76 979.66 709.3 930.82 670.74 961.7 716.76 979.66" style="fill: #fff; opacity: .5;"/>
      <polygon points="732.24 977.29 770.8 946.41 724.78 928.46 732.24 977.29" style="fill: #fff; opacity: .46;"/>
      <polygon points="657.02 1027.5 649.56 978.67 611 1009.55 657.02 1027.5" style="fill: #fff; opacity: .65;"/>
      <polygon points="672.51 1025.13 711.06 994.25 665.04 976.3 672.51 1025.13" style="fill: #fff; opacity: .89;"/>
      <polygon points="597.28 1075.34 589.82 1026.51 551.26 1057.39 597.28 1075.34" style="fill: #fff; opacity: .98;"/>
      <polygon points="612.77 1072.97 651.32 1042.1 605.31 1024.14 612.77 1072.97" style="fill: #fff; opacity: .39;"/>
      <polygon points="537.54 1123.18 530.08 1074.35 491.53 1105.23 537.54 1123.18" style="fill: #fff; opacity: .15;"/>
      <polygon points="553.03 1120.81 591.59 1089.94 545.57 1071.98 553.03 1120.81" style="fill: #fff; opacity: 1;"/>
      <polygon points="1327.83 435.51 1373.85 453.46 1366.39 404.63 1327.83 435.51" style="fill: #fff; opacity: .5;"/>
      <polygon points="1268.09 483.35 1314.11 501.3 1306.65 452.47 1268.09 483.35" style="fill: #fff; opacity: .95;"/>
      <polygon points="1329.6 498.93 1368.15 468.05 1322.14 450.1 1329.6 498.93" style="fill: #fff; opacity: .62;"/>
      <polygon points="1208.35 531.19 1254.37 549.14 1246.91 500.31 1208.35 531.19" style="fill: #fff; opacity: .55;"/>
      <polygon points="1269.86 546.77 1308.41 515.89 1262.4 497.94 1269.86 546.77" style="fill: #fff; opacity: .82;"/>
      <polygon points="1148.62 579.03 1194.63 596.98 1187.17 548.15 1148.62 579.03" style="fill: #fff; opacity: .2;"/>
      <polygon points="1210.12 594.61 1248.68 563.74 1202.66 545.79 1210.12 594.61" style="fill: #fff; opacity: .26;"/>
      <polygon points="1088.88 626.87 1134.9 644.82 1127.44 595.99 1088.88 626.87" style="fill: #fff; opacity: .62;"/>
      <polygon points="1150.38 642.46 1188.94 611.58 1142.92 593.63 1150.38 642.46" style="fill: #fff; opacity: .21;"/>
      <polygon points="851.72 881.61 890.28 850.73 844.26 832.78 851.72 881.61" style="fill: #fff; opacity: .28;"/>
      <polygon points="790.21 866.02 836.23 883.97 828.77 835.14 790.21 866.02" style="fill: #fff; opacity: .12;"/>
      <polygon points="911.46 833.76 950.01 802.88 904 784.93 911.46 833.76" style="fill: #fff; opacity: .4;"/>
      <polygon points="849.95 818.18 895.97 836.13 888.51 787.3 849.95 818.18" style="fill: #fff; opacity: .72;"/>
      <polygon points="971.19 785.92 1009.75 755.04 963.73 737.09 971.19 785.92" style="fill: #fff; opacity: .13;"/>
      <polygon points="909.69 770.34 955.71 788.29 948.25 739.46 909.69 770.34" style="fill: #fff; opacity: .95;"/>
      <polygon points="1030.93 738.08 1069.49 707.2 1023.47 689.25 1030.93 738.08" style="fill: #fff; opacity: .25;"/>
      <polygon points="969.43 722.49 1015.44 740.45 1007.98 691.62 969.43 722.49" style="fill: #fff; opacity: .72;"/>
      <polygon points="1090.67 690.24 1129.23 659.36 1083.21 641.41 1090.67 690.24" style="fill: #fff; opacity: .12;"/>
      <polygon points="1029.17 674.65 1075.18 692.6 1067.72 643.77 1029.17 674.65" style="fill: #fff; opacity: .35;"/>
      <polygon points="1447.28 339.88 1493.3 357.83 1485.84 309.01 1447.28 339.88" style="fill: #fff; opacity: .11;"/>
      <polygon points="1387.54 387.73 1433.56 405.68 1426.1 356.85 1387.54 387.73" style="fill: #fff; opacity: .85;"/>
      <polygon points="1449.05 403.31 1487.6 372.43 1441.59 354.48 1449.05 403.31" style="fill: #fff; opacity: .74;"/>
      <polygon points="1389.33 451.09 1427.89 420.21 1381.87 402.26 1389.33 451.09" style="fill: #fff; opacity: .52;"/>
      <polygon points="1851.7 70.85 1844.24 22.02 1805.68 52.9 1851.7 70.85" style="fill: #fff; opacity: .53;"/>
      <polygon points="1867.19 68.48 1905.74 37.6 1859.73 19.65 1867.19 68.48" style="fill: #fff; opacity: .77;"/>
      <polygon points="1745.94 100.74 1791.96 118.69 1784.5 69.86 1745.94 100.74" style="fill: #fff; opacity: .12;"/>
      <polygon points="1807.45 116.32 1846.01 85.44 1799.99 67.49 1807.45 116.32" style="fill: #fff; opacity: .92;"/>
      <polygon points="1686.21 148.58 1732.22 166.53 1724.76 117.7 1686.21 148.58" style="fill: #fff; opacity: .85;"/>
      <polygon points="1747.71 164.16 1786.27 133.28 1740.25 115.33 1747.71 164.16" style="fill: #fff; opacity: .16;"/>
      <polygon points="1626.47 196.42 1672.49 214.37 1665.03 165.54 1626.47 196.42" style="fill: #fff; opacity: .28;"/>
      <polygon points="1687.97 212.01 1726.53 181.13 1680.51 163.17 1687.97 212.01" style="fill: #fff; opacity: .82;"/>
      <polygon points="1566.73 244.26 1612.75 262.21 1605.29 213.39 1566.73 244.26" style="fill: #fff; opacity: .71;"/>
      <polygon points="1508.78 355.47 1547.34 324.59 1501.32 306.64 1508.78 355.47" style="fill: #fff; opacity: .8;"/>
      <polygon points="1507.02 292.04 1553.04 309.99 1545.58 261.16 1507.02 292.04" style="fill: #fff; opacity: .91;"/>
      <polygon points="1628.23 259.85 1666.79 228.97 1620.77 211.02 1628.23 259.85" style="fill: #fff; opacity: .38;"/>
      <polygon points="1568.52 307.63 1607.08 276.75 1561.06 258.79 1568.52 307.63" style="fill: #fff; opacity: .2;"/>
      <polygon points="1926.92 20.64 1965.48 -10.24 1919.46 -28.19 1926.92 20.64" style="fill: #fff; opacity: .83;"/>
      <polygon points="1911.44 23 1903.98 -25.82 1865.42 5.05 1911.44 23" style="fill: #fff; opacity: .88;"/>
      <polygon points="722.79 837.61 762.49 853.1 756.05 810.97 722.79 837.61" style="fill: #fff; opacity: .19;"/>
      <polygon points="781.85 850.14 815.11 823.5 775.41 808.02 781.85 850.14" style="fill: #fff; opacity: .73;"/>
      <polygon points="696.31 858.82 663.05 885.46 702.75 900.94 696.31 858.82" style="fill: #fff; opacity: .99;"/>
      <polygon points="722.11 897.98 755.37 871.34 715.67 855.86 722.11 897.98" style="fill: #fff; opacity: .29;"/>
      <polygon points="636.58 906.66 603.31 933.3 643.01 948.78 636.58 906.66" style="fill: #fff; opacity: .66;"/>
      <polygon points="695.63 919.19 655.93 903.7 662.37 945.83 695.63 919.19" style="fill: #fff; opacity: .39;"/>
      <polygon points="576.84 954.5 543.58 981.14 583.27 996.63 576.84 954.5" style="fill: #fff; opacity: .13;"/>
      <polygon points="635.89 967.03 596.2 951.54 602.63 993.67 635.89 967.03" style="fill: #fff; opacity: .12;"/>
      <polygon points="517.1 1002.34 483.84 1028.98 523.54 1044.47 517.1 1002.34" style="fill: #fff; opacity: .4;"/>
      <polygon points="457.39 1050.12 424.13 1076.76 463.82 1092.25 457.39 1050.12" style="fill: #fff; opacity: .74;"/>
      <polygon points="576.16 1014.87 536.46 999.38 542.9 1041.51 576.16 1014.87" style="fill: #fff; opacity: .12;"/>
      <polygon points="516.44 1062.65 476.75 1047.16 483.18 1089.29 516.44 1062.65" style="fill: #fff; opacity: .66;"/>
      <polygon points="1320.14 359.26 1359.84 374.74 1353.4 332.62 1320.14 359.26" style="fill: #fff; opacity: .42;"/>
      <polygon points="1260.41 407.1 1300.1 422.59 1293.67 380.46 1260.41 407.1" style="fill: #fff; opacity: .38;"/>
      <polygon points="1319.46 419.62 1352.72 392.99 1313.03 377.5 1319.46 419.62" style="fill: #fff; opacity: .85;"/>
      <polygon points="1200.67 454.94 1240.37 470.43 1233.93 428.3 1200.67 454.94" style="fill: #fff; opacity: .82;"/>
      <polygon points="1259.72 467.47 1292.98 440.83 1253.29 425.34 1259.72 467.47" style="fill: #fff; opacity: .97;"/>
      <polygon points="1140.93 502.78 1180.63 518.27 1174.19 476.15 1140.93 502.78" style="fill: #fff; opacity: .71;"/>
      <polygon points="1199.99 515.31 1233.25 488.67 1193.55 473.19 1199.99 515.31" style="fill: #fff; opacity: .26;"/>
      <polygon points="1081.19 550.62 1120.89 566.11 1114.45 523.99 1081.19 550.62" style="fill: #fff; opacity: .75;"/>
      <polygon points="1140.25 563.15 1173.51 536.51 1133.81 521.03 1140.25 563.15" style="fill: #fff; opacity: .73;"/>
      <polygon points="841.58 802.3 874.84 775.66 835.15 760.18 841.58 802.3" style="fill: #fff; opacity: .75;"/>
      <polygon points="782.53 789.77 822.23 805.26 815.79 763.13 782.53 789.77" style="fill: #fff; opacity: .66;"/>
      <polygon points="901.32 754.46 934.58 727.82 894.89 712.33 901.32 754.46" style="fill: #fff; opacity: .34;"/>
      <polygon points="842.27 741.93 881.96 757.42 875.53 715.29 842.27 741.93" style="fill: #fff; opacity: .48;"/>
      <polygon points="961.06 706.61 994.32 679.98 954.62 664.49 961.06 706.61" style="fill: #fff; opacity: .94;"/>
      <polygon points="902.01 694.09 941.7 709.57 935.26 667.45 902.01 694.09" style="fill: #fff; opacity: .27;"/>
      <polygon points="1020.8 658.77 1054.06 632.13 1014.36 616.65 1020.8 658.77" style="fill: #fff; opacity: .99;"/>
      <polygon points="961.74 646.25 1001.44 661.73 995 619.61 961.74 646.25" style="fill: #fff; opacity: .36;"/>
      <polygon points="1080.54 610.93 1113.8 584.29 1074.1 568.81 1080.54 610.93" style="fill: #fff; opacity: .89;"/>
      <polygon points="1021.48 598.4 1061.18 613.89 1054.74 571.76 1021.48 598.4" style="fill: #fff; opacity: .19;"/>
      <polygon points="1439.59 263.63 1479.29 279.12 1472.85 237 1439.59 263.63" style="fill: #fff; opacity: .7;"/>
      <polygon points="1379.86 311.48 1419.55 326.96 1413.12 284.84 1379.86 311.48" style="fill: #fff; opacity: .23;"/>
      <polygon points="1438.91 324 1472.17 297.37 1432.48 281.88 1438.91 324" style="fill: #fff; opacity: .15;"/>
      <polygon points="1379.2 371.78 1412.46 345.14 1372.76 329.66 1379.2 371.78" style="fill: #fff; opacity: .29;"/>
      <polygon points="1738.26 24.49 1777.95 39.97 1771.52 -2.15 1738.26 24.49" style="fill: #fff; opacity: .89;"/>
      <polygon points="1790.88 -5.11 1797.31 37.02 1830.57 10.38 1790.88 -5.11" style="fill: #fff; opacity: .93;"/>
      <polygon points="1678.52 72.33 1718.22 87.82 1711.78 45.69 1678.52 72.33" style="fill: #fff; opacity: .67;"/>
      <polygon points="1731.14 42.73 1737.58 84.86 1770.84 58.22 1731.14 42.73" style="fill: #fff; opacity: .99;"/>
      <polygon points="1618.78 120.17 1658.48 135.66 1652.04 93.53 1618.78 120.17" style="fill: #fff; opacity: .48;"/>
      <polygon points="1671.4 90.58 1677.84 132.7 1711.1 106.06 1671.4 90.58" style="fill: #fff; opacity: .26;"/>
      <polygon points="1559.04 168.01 1598.74 183.5 1592.31 141.38 1559.04 168.01" style="fill: #fff; opacity: .12;"/>
      <polygon points="1498.65 276.16 1531.91 249.53 1492.22 234.04 1498.65 276.16" style="fill: #fff; opacity: .92;"/>
      <polygon points="1499.33 215.79 1539.03 231.28 1532.59 189.15 1499.33 215.79" style="fill: #fff; opacity: .12;"/>
      <polygon points="1618.1 180.54 1651.36 153.9 1611.66 138.42 1618.1 180.54" style="fill: #fff; opacity: .56;"/>
      <polygon points="1558.39 228.32 1591.65 201.68 1551.95 186.19 1558.39 228.32" style="fill: #fff; opacity: .47;"/>
      <polygon points="1047.15 535.24 1041.74 499.82 1013.77 522.22 1047.15 535.24" style="fill: #fff; opacity: .84;"/>
      <polygon points="1070.38 531.69 1098.34 509.29 1064.97 496.27 1070.38 531.69" style="fill: #fff; opacity: .68;"/>
      <polygon points="987.41 583.08 982 547.66 954.03 570.06 987.41 583.08" style="fill: #fff; opacity: .53;"/>
      <polygon points="1010.64 579.53 1038.6 557.13 1005.23 544.11 1010.64 579.53" style="fill: #fff; opacity: .23;"/>
      <polygon points="894.29 617.9 927.67 630.93 922.26 595.51 894.29 617.9" style="fill: #fff; opacity: .83;"/>
      <polygon points="950.9 627.37 978.87 604.98 945.49 591.95 950.9 627.37" style="fill: #fff; opacity: .8;"/>
      <polygon points="834.56 665.74 867.93 678.77 862.52 643.35 834.56 665.74" style="fill: #fff; opacity: .27;"/>
      <polygon points="891.16 675.21 919.13 652.82 885.75 639.8 891.16 675.21" style="fill: #fff; opacity: .35;"/>
      <polygon points="774.82 713.59 808.19 726.61 802.78 691.19 774.82 713.59" style="fill: #fff; opacity: .39;"/>
      <polygon points="739.94 796.28 706.56 783.26 711.97 818.68 739.94 796.28" style="fill: #fff; opacity: .65;"/>
      <polygon points="715.1 761.37 748.48 774.39 743.07 738.97 715.1 761.37" style="fill: #fff; opacity: .6;"/>
      <polygon points="831.43 723.06 859.39 700.66 826.01 687.64 831.43 723.06" style="fill: #fff; opacity: .86;"/>
      <polygon points="771.71 770.83 799.68 748.44 766.3 735.42 771.71 770.83" style="fill: #fff; opacity: .29;"/>
      <polygon points="1611.12 43.86 1644.5 56.88 1639.09 21.47 1611.12 43.86" style="fill: #fff; opacity: .11;"/>
      <polygon points="1551.38 91.7 1584.76 104.72 1579.35 69.31 1551.38 91.7" style="fill: #fff; opacity: .55;"/>
      <polygon points="1607.99 101.17 1635.96 78.78 1602.58 65.76 1607.99 101.17" style="fill: #fff; opacity: .57;"/>
      <polygon points="1491.65 139.55 1525.02 152.57 1519.61 117.15 1491.65 139.55" style="fill: #fff; opacity: .74;"/>
      <polygon points="1548.25 149.01 1576.22 126.62 1542.84 113.6 1548.25 149.01" style="fill: #fff; opacity: .33;"/>
      <polygon points="1465.28 200.41 1459.87 164.99 1431.91 187.39 1465.28 200.41" style="fill: #fff; opacity: .37;"/>
      <polygon points="1488.52 196.86 1516.48 174.46 1483.1 161.44 1488.52 196.86" style="fill: #fff; opacity: .85;"/>
      <polygon points="1405.55 248.25 1400.14 212.83 1372.17 235.23 1405.55 248.25" style="fill: #fff; opacity: .66;"/>
      <polygon points="1428.78 244.7 1456.74 222.3 1423.37 209.28 1428.78 244.7" style="fill: #fff; opacity: .95;"/>
      <polygon points="1130.11 483.85 1158.08 461.45 1124.7 448.43 1130.11 483.85" style="fill: #fff; opacity: .52;"/>
      <polygon points="1106.88 487.4 1101.47 451.98 1073.51 474.38 1106.88 487.4" style="fill: #fff; opacity: .84;"/>
      <polygon points="1189.85 436.01 1217.82 413.61 1184.44 400.59 1189.85 436.01" style="fill: #fff; opacity: .66;"/>
      <polygon points="1166.62 439.56 1161.21 404.14 1133.24 426.54 1166.62 439.56" style="fill: #fff; opacity: .61;"/>
      <polygon points="1249.59 388.16 1277.55 365.77 1244.18 352.74 1249.59 388.16" style="fill: #fff; opacity: .76;"/>
      <polygon points="1226.36 391.71 1220.95 356.3 1192.98 378.69 1226.36 391.71" style="fill: #fff; opacity: .36;"/>
      <polygon points="1309.33 340.32 1337.29 317.92 1303.92 304.9 1309.33 340.32" style="fill: #fff; opacity: .77;"/>
      <polygon points="1286.1 343.87 1280.69 308.46 1252.72 330.85 1286.1 343.87" style="fill: #fff; opacity: .25;"/>
      <polygon points="1369.06 292.48 1397.03 270.08 1363.65 257.06 1369.06 292.48" style="fill: #fff; opacity: .52;"/>
      <polygon points="1345.83 296.03 1340.42 260.61 1312.46 283.01 1345.83 296.03" style="fill: #fff; opacity: .64;"/>
      <polygon points="1670.83 -3.92 1704.21 9.1 1698.8 -26.31 1670.83 -3.92" style="fill: #fff; opacity: .41;"/>
      <polygon points="1727.44 5.55 1755.41 -16.84 1722.03 -29.87 1727.44 5.55" style="fill: #fff; opacity: .9;"/>
      <polygon points="1667.73 53.33 1695.69 30.93 1662.32 17.91 1667.73 53.33" style="fill: #fff; opacity: .37;"/>
      <polygon points="1006.08 445.97 1033.14 456.52 1028.75 427.81 1006.08 445.97" style="fill: #fff; opacity: .36;"/>
      <polygon points="1055.86 423.67 1060.24 452.38 1082.91 434.23 1055.86 423.67" style="fill: #fff; opacity: .52;"/>
      <polygon points="946.34 493.81 973.4 504.37 969.01 475.66 946.34 493.81" style="fill: #fff; opacity: .27;"/>
      <polygon points="996.12 471.51 1000.5 500.22 1023.17 482.07 996.12 471.51" style="fill: #fff; opacity: .56;"/>
      <polygon points="886.61 541.65 913.66 552.21 909.28 523.5 886.61 541.65" style="fill: #fff; opacity: .69;"/>
      <polygon points="936.38 519.35 940.77 548.07 963.44 529.91 936.38 519.35" style="fill: #fff; opacity: .2;"/>
      <polygon points="826.87 589.5 853.93 600.05 849.54 571.34 826.87 589.5" style="fill: #fff; opacity: .67;"/>
      <polygon points="876.64 567.2 881.03 595.91 903.7 577.75 876.64 567.2" style="fill: #fff; opacity: .89;"/>
      <polygon points="767.13 637.34 794.19 647.89 789.8 619.18 767.13 637.34" style="fill: #fff; opacity: .15;"/>
      <polygon points="724.51 721.22 697.45 710.66 701.84 739.37 724.51 721.22" style="fill: #fff; opacity: .18;"/>
      <polygon points="730.09 666.96 707.42 685.12 734.47 695.67 730.09 666.96" style="fill: #fff; opacity: .56;"/>
      <polygon points="816.9 615.04 821.29 643.75 843.96 625.59 816.9 615.04" style="fill: #fff; opacity: .94;"/>
      <polygon points="757.19 662.82 761.58 691.53 784.25 673.37 757.19 662.82" style="fill: #fff; opacity: .52;"/>
      <polygon points="1543.7 15.45 1570.75 26.01 1566.37 -2.7 1543.7 15.45" style="fill: #fff; opacity: .74;"/>
      <polygon points="1593.47 -6.84 1597.86 21.87 1620.52 3.71 1593.47 -6.84" style="fill: #fff; opacity: .33;"/>
      <polygon points="1483.96 63.3 1511.02 73.85 1506.63 45.14 1483.96 63.3" style="fill: #fff; opacity: .66;"/>
      <polygon points="1533.73 41 1538.12 69.71 1560.79 51.55 1533.73 41" style="fill: #fff; opacity: .81;"/>
      <polygon points="1424.22 111.14 1451.28 121.69 1446.89 92.98 1424.22 111.14" style="fill: #fff; opacity: .26;"/>
      <polygon points="1474 88.84 1478.38 117.55 1501.05 99.4 1474 88.84" style="fill: #fff; opacity: .38;"/>
      <polygon points="1364.48 158.98 1391.54 169.54 1387.15 140.82 1364.48 158.98" style="fill: #fff; opacity: .29;"/>
      <polygon points="1414.26 136.68 1418.64 165.39 1441.31 147.24 1414.26 136.68" style="fill: #fff; opacity: .55;"/>
      <polygon points="1115.59 375.83 1119.98 404.54 1142.65 386.39 1115.59 375.83" style="fill: #fff; opacity: .47;"/>
      <polygon points="1065.82 398.13 1092.88 408.68 1088.49 379.97 1065.82 398.13" style="fill: #fff; opacity: .58;"/>
      <polygon points="1175.33 327.99 1179.72 356.7 1202.39 338.54 1175.33 327.99" style="fill: #fff; opacity: .36;"/>
      <polygon points="1125.56 350.29 1152.61 360.84 1148.23 332.13 1125.56 350.29" style="fill: #fff; opacity: .8;"/>
      <polygon points="1235.07 280.14 1239.45 308.86 1262.12 290.7 1235.07 280.14" style="fill: #fff; opacity: .62;"/>
      <polygon points="1185.3 302.44 1212.35 313 1207.96 284.29 1185.3 302.44" style="fill: #fff; opacity: .83;"/>
      <polygon points="1294.81 232.3 1299.19 261.02 1321.86 242.86 1294.81 232.3" style="fill: #fff; opacity: .8;"/>
      <polygon points="1245.03 254.6 1272.09 265.16 1267.7 236.45 1245.03 254.6" style="fill: #fff; opacity: .39;"/>
      <polygon points="1354.54 184.46 1358.93 213.17 1381.6 195.02 1354.54 184.46" style="fill: #fff; opacity: .94;"/>
      <polygon points="1304.77 206.76 1331.83 217.32 1327.44 188.6 1304.77 206.76" style="fill: #fff; opacity: .85;"/>
      <polygon points="1019.13 377.81 1015.77 355.81 998.39 369.72 1019.13 377.81" style="fill: #fff; opacity: .63;"/>
      <polygon points="1050.11 373.08 1067.48 359.16 1046.75 351.07 1050.11 373.08" style="fill: #fff; opacity: .97;"/>
      <polygon points="959.39 425.65 956.03 403.65 938.66 417.57 959.39 425.65" style="fill: #fff; opacity: .69;"/>
      <polygon points="990.37 420.92 1007.74 407.01 987.01 398.91 990.37 420.92" style="fill: #fff; opacity: .63;"/>
      <polygon points="899.65 473.5 896.29 451.49 878.92 465.41 899.65 473.5" style="fill: #fff; opacity: .92;"/>
      <polygon points="930.63 468.76 948.01 454.85 927.27 446.76 930.63 468.76" style="fill: #fff; opacity: .17;"/>
      <polygon points="839.92 521.34 836.56 499.34 819.18 513.25 839.92 521.34" style="fill: #fff; opacity: .71;"/>
      <polygon points="870.89 516.6 888.27 502.69 867.53 494.6 870.89 516.6" style="fill: #fff; opacity: .34;"/>
      <polygon points="780.18 569.18 776.82 547.18 759.44 561.09 780.18 569.18" style="fill: #fff; opacity: .51;"/>
      <polygon points="691.7 660.07 709.08 646.15 688.34 638.06 691.7 660.07" style="fill: #fff; opacity: .81;"/>
      <polygon points="720.47 616.96 717.11 594.95 699.73 608.87 720.47 616.96" style="fill: #fff; opacity: .41;"/>
      <polygon points="811.15 564.45 828.53 550.53 807.79 542.44 811.15 564.45" style="fill: #fff; opacity: .53;"/>
      <polygon points="751.44 612.22 768.82 598.31 748.08 590.22 751.44 612.22" style="fill: #fff; opacity: .42;"/>
      <polygon points="1437.27 42.98 1433.91 20.98 1416.54 34.89 1437.27 42.98" style="fill: #fff; opacity: 1;"/>
      <polygon points="1468.25 38.25 1485.62 24.33 1464.88 16.24 1468.25 38.25" style="fill: #fff; opacity: .3;"/>
      <polygon points="1377.53 90.82 1374.17 68.82 1356.8 82.73 1377.53 90.82" style="fill: #fff; opacity: .68;"/>
      <polygon points="1408.51 86.09 1425.88 72.17 1405.15 64.08 1408.51 86.09" style="fill: #fff; opacity: .2;"/>
      <polygon points="1109.84 325.24 1127.22 311.32 1106.48 303.23 1109.84 325.24" style="fill: #fff; opacity: .74;"/>
      <polygon points="1078.87 329.97 1075.51 307.97 1058.13 321.88 1078.87 329.97" style="fill: #fff; opacity: .22;"/>
      <polygon points="1169.58 277.39 1186.96 263.48 1166.22 255.39 1169.58 277.39" style="fill: #fff; opacity: .19;"/>
      <polygon points="1138.61 282.13 1135.24 260.13 1117.87 274.04 1138.61 282.13" style="fill: #fff; opacity: .87;"/>
      <polygon points="1229.32 229.55 1246.69 215.64 1225.96 207.55 1229.32 229.55" style="fill: #fff; opacity: .75;"/>
      <polygon points="1198.34 234.29 1194.98 212.28 1177.61 226.2 1198.34 234.29" style="fill: #fff; opacity: .99;"/>
      <polygon points="1289.06 181.71 1306.43 167.79 1285.7 159.71 1289.06 181.71" style="fill: #fff; opacity: .25;"/>
      <polygon points="1258.08 186.45 1254.72 164.44 1237.35 178.36 1258.08 186.45" style="fill: #fff; opacity: .67;"/>
      <polygon points="1348.8 133.87 1366.17 119.95 1345.43 111.86 1348.8 133.87" style="fill: #fff; opacity: .58;"/>
      <polygon points="1317.82 138.6 1314.46 116.6 1297.08 130.51 1317.82 138.6" style="fill: #fff; opacity: .83;"/>
      <polygon points="943.08 331.58 931 341.25 945.41 346.88 943.08 331.58" style="fill: #fff; opacity: .15;"/>
      <polygon points="980.26 341.55 992.34 331.88 977.92 326.25 980.26 341.55" style="fill: #fff; opacity: .28;"/>
      <polygon points="885.67 394.72 883.34 379.42 871.26 389.09 885.67 394.72" style="fill: #fff; opacity: .79;"/>
      <polygon points="932.6 379.72 918.18 374.1 920.52 389.39 932.6 379.72" style="fill: #fff; opacity: .57;"/>
      <polygon points="825.94 442.56 823.6 427.26 811.52 436.94 825.94 442.56" style="fill: #fff; opacity: .25;"/>
      <polygon points="872.86 427.56 858.45 421.94 860.78 437.24 872.86 427.56" style="fill: #fff; opacity: .54;"/>
      <polygon points="766.2 490.4 763.86 475.1 751.78 484.78 766.2 490.4" style="fill: #fff; opacity: .6;"/>
      <polygon points="813.12 475.4 798.71 469.78 801.05 485.08 813.12 475.4" style="fill: #fff; opacity: .19;"/>
      <polygon points="706.46 538.25 704.12 522.95 692.04 532.62 706.46 538.25" style="fill: #fff; opacity: .33;"/>
      <polygon points="753.39 523.24 738.97 517.62 741.31 532.92 753.39 523.24" style="fill: #fff; opacity: .59;"/>
      <polygon points="693.67 571.02 679.26 565.4 681.59 580.7 693.67 571.02" style="fill: #fff; opacity: .14;"/>
      <polygon points="1363.55 12.05 1361.22 -3.25 1349.14 6.42 1363.55 12.05" style="fill: #fff; opacity: .69;"/>
      <polygon points="1398.4 6.72 1410.48 -2.95 1396.06 -8.58 1398.4 6.72" style="fill: #fff; opacity: .28;"/>
      <polygon points="1303.81 59.89 1301.48 44.59 1289.4 54.26 1303.81 59.89" style="fill: #fff; opacity: .75;"/>
      <polygon points="1338.66 54.56 1350.74 44.89 1336.32 39.26 1338.66 54.56" style="fill: #fff; opacity: .39;"/>
      <polygon points="1040 293.71 1052.08 284.04 1037.66 278.41 1040 293.71" style="fill: #fff; opacity: .51;"/>
      <polygon points="1002.81 283.74 990.73 293.41 1005.15 299.04 1002.81 283.74" style="fill: #fff; opacity: .48;"/>
      <polygon points="1099.73 245.87 1111.81 236.19 1097.4 230.57 1099.73 245.87" style="fill: #fff; opacity: .58;"/>
      <polygon points="1062.55 235.9 1050.47 245.57 1064.89 251.19 1062.55 235.9" style="fill: #fff; opacity: .56;"/>
      <polygon points="1159.47 198.03 1171.55 188.35 1157.13 182.73 1159.47 198.03" style="fill: #fff; opacity: .73;"/>
      <polygon points="1122.29 188.05 1110.21 197.73 1124.62 203.35 1122.29 188.05" style="fill: #fff; opacity: .78;"/>
      <polygon points="1219.21 150.18 1231.29 140.51 1216.87 134.88 1219.21 150.18" style="fill: #fff; opacity: .94;"/>
      <polygon points="1182.03 140.21 1169.95 149.89 1184.36 155.51 1182.03 140.21" style="fill: #fff; opacity: .56;"/>
      <polygon points="1278.95 102.34 1291.03 92.67 1276.61 87.04 1278.95 102.34" style="fill: #fff; opacity: .9;"/>
      <polygon points="1241.76 92.37 1229.68 102.04 1244.1 107.67 1241.76 92.37" style="fill: #fff; opacity: .29;"/>
    </g>
  </g>
</svg>